<?xml version="1.0" encoding="utf-8"?>
<!-- Generator: Adobe Illustrator 26.0.1, SVG Export Plug-In . SVG Version: 6.00 Build 0)  -->
<svg version="1.1" id="Layer_1" xmlns="http://www.w3.org/2000/svg" xmlns:xlink="http://www.w3.org/1999/xlink" x="0px" y="0px"
	 viewBox="0 0 333.7 279.4" style="enable-background:new 0 0 333.7 279.4;" xml:space="preserve">
<style type="text/css">
	.st0{fill:#FFFFFF;}
	.st1{fill:#252E44;}
</style>
<g>
	<polygon class="st0" points="188.3,168.6 204.1,110.8 262.6,110.8 246.9,168.6 	"/>
	<g>
		<polygon class="st0" points="55.5,226 102.5,53.4 328.5,53.4 312.8,110.8 145.4,110.8 129.6,168.6 297.1,168.6 281.4,226 		"/>
		<polygon class="st0" points="42,275.4 55.5,226 114,226 100.5,275.4 		"/>
		<polygon class="st0" points="36.6,110.8 52.3,53.4 102.5,53.4 86.9,110.8 		"/>
		<polygon class="st0" points="5.2,226 20.9,168.6 71.1,168.6 55.5,226 		"/>
		<polygon class="st0" points="102.5,53.4 116,4 174.5,4 161,53.4 		"/>
		<polygon class="st0" points="159.2,275.4 172.7,226 231.2,226 217.8,275.4 		"/>
		<polygon class="st0" points="219.7,53.4 233.2,4 291.7,4 278.2,53.4 		"/>
	</g>
</g>
<g>
	<path class="st1" d="M257.4,114.8l-13.6,49.8h-50.2l13.6-49.8H257.4 M267.9,106.8H201l-1.6,5.9l-13.6,49.9l-2.7,10.1H250l1.6-5.9
		l13.6-49.9L267.9,106.8L267.9,106.8z"/>
	<g>
		<path class="st1" d="M323.2,57.4l-13.5,49.4H142.3l-18,65.8h167.5L278.4,222H60.7l44.8-164.6H323.2 M333.7,49.4H99.4l-1.6,5.9
			L53,219.9L50.2,230h234.3l1.6-5.9l13.5-49.4l2.8-10.1H134.9l13.6-49.8h167.4l1.6-5.9L331,59.5L333.7,49.4z"/>
		<path class="st1" d="M108.8,230l-11.3,41.4H47.2L58.5,230H108.8 M119.2,222H52.4l-1.6,5.9l-11.3,41.4l-2.8,10.1h66.8l1.6-5.9
			l11.3-41.4L119.2,222L119.2,222z"/>
		<path class="st1" d="M97.2,57.4l-13.5,49.4H41.9l13.4-49.4H97.2 M107.7,49.4H49.2l-1.6,5.9l-13.5,49.4l-2.8,10.1h58.5l1.6-5.9
			L105,59.5L107.7,49.4L107.7,49.4z"/>
		<path class="st1" d="M65.9,172.6L52.4,222H10.5l13.4-49.4H65.9 M76.4,164.6H17.8l-1.6,5.9L2.8,219.9L0,230h58.5l1.6-5.9l13.4-49.4
			L76.4,164.6L76.4,164.6z"/>
		<path class="st1" d="M169.2,8L158,49.4h-50.2L119,8H169.2 M179.7,0h-66.8l-1.6,5.9L100,47.3l-2.8,10.1h66.9l1.6-5.9L177,10.1
			L179.7,0L179.7,0z"/>
		<path class="st1" d="M226,230l-11.3,41.4h-50.2l11.3-41.4H226 M236.4,222h-66.8l-1.6,5.9l-11.3,41.4l-2.8,10.1h66.8l1.6-5.9
			l11.3-41.4L236.4,222L236.4,222z"/>
		<path class="st1" d="M286.5,8l-11.3,41.4H225L236.2,8H286.5 M296.9,0h-66.8l-1.6,5.9l-11.3,41.4l-2.8,10.1h66.8l1.6-5.9l11.2-41.4
			L296.9,0L296.9,0z"/>
	</g>
</g>
</svg>
