<svg id="Layer_1" data-name="Layer 1" xmlns="http://www.w3.org/2000/svg" viewBox="0 0 312.77 263.39"><defs><style>.cls-1{fill:#fff;}</style></defs><polygon class="cls-1" points="267.92 214 50.24 214 95.08 49.38 312.77 49.38 299.31 98.77 131.87 98.77 113.93 164.62 281.38 164.62 267.92 214"/><polygon class="cls-1" points="36.77 263.39 87.01 263.39 98.28 222 48.06 222 36.77 263.39"/><polygon class="cls-1" points="44.86 49.38 31.4 98.77 73.33 98.77 86.79 49.38 44.86 49.38"/><polygon class="cls-1" points="13.44 164.62 0 214 41.95 214 55.4 164.62 13.44 164.62"/><polygon class="cls-1" points="158.78 0 108.56 0 97.27 41.38 147.5 41.38 158.78 0"/><polygon class="cls-1" points="153.98 263.39 204.22 263.39 215.5 222 165.27 222 153.98 263.39"/><polygon class="cls-1" points="196.67 106.77 183.09 156.62 233.33 156.62 246.92 106.77 196.67 106.77"/><polygon class="cls-1" points="275.99 0 225.77 0 214.48 41.38 264.71 41.38 275.99 0"/></svg>